<?xml version="1.0" standalone="no"?><!DOCTYPE svg PUBLIC "-//W3C//DTD SVG 1.1//EN" "http://www.w3.org/Graphics/SVG/1.1/DTD/svg11.dtd"><svg t="1632281708840" class="icon" viewBox="0 0 1181 1024" version="1.1" xmlns="http://www.w3.org/2000/svg" p-id="4698" xmlns:xlink="http://www.w3.org/1999/xlink" width="590.5" height="512"><defs><style type="text/css"></style></defs><path d="M78.769231 803.446154H47.261538A47.261538 47.261538 0 1 1 47.261538 708.923077H78.769231V567.138462H47.261538A47.261538 47.261538 0 1 1 47.261538 472.615385H78.769231V330.830769H47.261538A47.261538 47.261538 0 1 1 47.261538 236.307692H78.769231V78.769231a78.769231 78.769231 0 0 1 78.769231-78.769231h708.923076a78.769231 78.769231 0 0 1 78.769231 78.769231v247.571692l-433.230769 444.258462 16.305231 212.440615h207.714461L945.230769 777.294769V945.230769a78.769231 78.769231 0 0 1-78.769231 78.769231H157.538462a78.769231 78.769231 0 0 1-78.769231-78.769231v-141.784615z m196.923077-555.323077h472.615384a51.2 51.2 0 1 0 0-102.4h-472.615384a51.2 51.2 0 1 0 0 102.4z m0 236.307692h315.076923a51.2 51.2 0 1 0 0-102.4h-315.076923a51.2 51.2 0 1 0 0 102.4z m0 236.307693a51.2 51.2 0 1 1 0-102.4h157.538461a51.2 51.2 0 1 1 0 102.4h-157.538461z m752.718769-361.55077l109.174154 109.489231-52.066462 52.539077-109.725538-109.725538 52.617846-52.30277zM919.236923 464.974769l108.465231 110.119385-323.111385 328.546461H598.646154l-5.750154-103.975384 326.340923-334.690462z" p-id="4699"></path></svg>