<?xml version="1.0" standalone="no"?><!DOCTYPE svg PUBLIC "-//W3C//DTD SVG 1.1//EN" "http://www.w3.org/Graphics/SVG/1.1/DTD/svg11.dtd"><svg t="1632282252281" class="icon" viewBox="0 0 1024 1024" version="1.1" xmlns="http://www.w3.org/2000/svg" p-id="9956" xmlns:xlink="http://www.w3.org/1999/xlink" width="512" height="512"><defs><style type="text/css"></style></defs><path d="M975.414 479.59h-25.753c-34.849-214.5-217.495-378.069-437.601-378.069-220.112 0-402.749 163.568-437.612 378.069H48.586c-26.727 0-48.586 22.299-48.586 49.579v121.187c0 27.269 21.871 49.59 48.586 49.59h49.117c26.721 0 29.203-7.263 29.203-34.532V512.373c20.463-198.585 185.075-353.368 385.153-353.368 199.697 0 364.065 154.202 385.017 352.277V665.43c0 27.259 2.482 34.523 29.209 34.523h49.129c26.71 0 48.586-22.31 48.586-49.59V529.169c0-27.28-21.876-49.579-48.586-49.579z m0 0" p-id="9957"></path><path d="M600.225 737.345c-2.901 34.239-76.149 38.334-101.425 38.334-25.955 0-101.685-4.264-101.685-40.443v-32.919c12.559-26.976 71.683-35.764 101.604-35.764 28.101 0 83.964 9.419 101.113 30.643l233.111-47.977a347.909 347.909 0 0 0 14.179-98.535c0-188.572-149.826-341.423-334.645-341.423S177.833 362.117 177.833 550.684c0 188.568 149.826 341.419 334.645 341.419 135.12 0 251.515-81.706 304.354-199.334l-216.607 44.576z m0 0" p-id="9958"></path></svg>
