<?xml version="1.0" standalone="no"?><!DOCTYPE svg PUBLIC "-//W3C//DTD SVG 1.1//EN" "http://www.w3.org/Graphics/SVG/1.1/DTD/svg11.dtd"><svg t="1632282225063" class="icon" viewBox="0 0 1024 1024" version="1.1" xmlns="http://www.w3.org/2000/svg" p-id="8449" xmlns:xlink="http://www.w3.org/1999/xlink" width="512" height="512"><defs><style type="text/css"></style></defs><path d="M650.949632 568.637951c-71.54343-77.505211-208.668507-65.581648-208.668507-65.581647-59.619866 0-101.353362 5.961782-184.820355 65.581647S144.183843 729.61118 150.145625 789.231045s83.466993 125.20049 310.021869 125.20049c214.630289 0 286.173718-59.619866 298.097282-131.163295 11.924587-77.505211-47.695279-160.972205-107.315144-214.630289zM430.357562 109.568465c-101.353362 0-184.820356 83.466993-184.820356 184.820355s83.466993 184.820356 184.820356 184.820356 184.820356-83.466993 184.820355-184.820356S531.710924 109.568465 430.357562 109.568465z" p-id="8450"></path><path d="M606.300736 109.568465v41.733496s143.086859 11.923564 143.086859 137.125077c-5.961782 113.276926-89.429799 137.125077-155.010423 149.048641v41.733497s196.74392-23.848151 238.47844 238.47844h41.733497s-29.809933-232.515634-196.744943-262.325567c0 0 125.201513-35.771715 113.276926-184.820356-5.961782-101.354386-101.353362-155.011446-184.820356-160.973228z" p-id="8451"></path></svg>
