<?xml version="1.0" standalone="no"?><!DOCTYPE svg PUBLIC "-//W3C//DTD SVG 1.1//EN" "http://www.w3.org/Graphics/SVG/1.1/DTD/svg11.dtd"><svg t="1632282286226" class="icon" viewBox="0 0 1024 1024" version="1.1" xmlns="http://www.w3.org/2000/svg" p-id="11431" xmlns:xlink="http://www.w3.org/1999/xlink" width="512" height="512"><defs><style type="text/css"></style></defs><path d="M933.54 607.06l-80.433-62.923c0.952-9.628 1.746-20.657 1.746-32.136 0-11.453-0.767-22.456-1.746-32.136l81.306-63.611c15.341-12.643 19.573-38.352 9.628-55.544l-85.3-147.535c-9.971-17.166-30.814-24.624-49.513-17.668l-98.657 37.188c-17.721-12.669-36.342-23.487-55.703-32.348L640.347 99.229c-2.83-19.837-19.705-34.622-39.727-34.86l-173.562-2.037c-19.493 1.375-37.347 14.256-40.574 34.067L369.531 200.24c-18.647 8.57-36.95 19.202-55.544 32.321l-95.165-38.193c-18.488-7.459-39.859-0.238-50.069 16.954L80.12 360.735c-10.262 17.298-6.321 39.516 9.257 52.238l81.729 66.573c-1.217 12.14-1.772 22.641-1.772 32.454 0 9.76 0.555 20.207 1.746 32.136l-80.883 63.267c-15.658 12.537-20.102 38.458-10.051 55.861l85.3 147.562c9.971 17.192 30.946 24.757 49.513 17.668l98.63-37.188c17.748 12.669 36.395 23.487 55.703 32.348l14.521 101.117c2.83 19.837 19.705 34.622 39.727 34.86l173.588 2.037h0.476c19.89 0 36.897-14.415 40.097-34.093L654.63 823.76c18.7-8.57 37.029-19.229 55.57-32.321l95.165 38.193c18.62 7.538 39.886 0.291 50.069-16.981l89.426-150.868c9.39-17.403 4.285-42.53-11.32-54.723zM803.303 741.264l-73.953-29.703c-19.202-7.776-41.393-4.867-57.792 7.512-20.128 15.103-39.516 26.397-59.088 34.437-19.335 7.882-33.221 25.603-36.156 45.652l-13.172 80.856-103.867-1.217-11.294-78.82c-2.962-20.736-16.822-38.51-36.13-46.419-20.472-8.411-40.23-19.864-58.427-33.855-16.346-12.749-41.473-15.182-57.607-8.517l-77.259 29.121-51.815-89.611 64.114-50.175c16.24-12.722 24.757-33.353 22.244-53.957-1.693-13.542-2.513-24.492-2.513-34.57 0-10.051 0.82-21.054 2.539-34.675 2.486-20.498-6.03-41.129-21.689-53.402l-63.585-51.815 53.005-89.373 73.979 29.703c19.282 7.829 41.473 4.84 57.766-7.512 20.207-15.129 39.568-26.423 59.168-34.464 19.388-7.935 33.247-25.709 36.077-45.625l13.198-80.856 103.841 1.217 11.32 78.978c3.042 20.71 16.928 38.431 36.13 46.26 20.498 8.411 40.23 19.864 58.691 34.067 16.716 12.881 39.172 15.896 57.343 8.305l77.285-29.121 51.815 89.611-64.14 50.175c-16.319 12.775-24.836 33.485-22.27 53.825 1.137 9.284 2.539 21.609 2.539 34.702 0 13.093-1.402 25.392-2.513 34.517-2.592 20.525 5.925 41.235 22.297 54.063l63.77 49.884-53.851 90.802z"  p-id="11432"></path><path d="M512.12 325.795c-102.677 0-186.205 83.528-186.205 186.205s83.528 186.205 186.205 186.205S698.325 614.677 698.325 512 614.797 325.795 512.12 325.795z m0 291.157c-57.872 0-104.952-47.08-104.952-104.952s47.08-104.952 104.952-104.952S617.072 454.128 617.072 512s-47.08 104.952-104.952 104.952z" p-id="11433"></path></svg>
