<?xml version="1.0" standalone="no"?><!DOCTYPE svg PUBLIC "-//W3C//DTD SVG 1.1//EN" "http://www.w3.org/Graphics/SVG/1.1/DTD/svg11.dtd"><svg t="1632281457321" class="icon" viewBox="0 0 1152 1024" version="1.1" xmlns="http://www.w3.org/2000/svg" p-id="3161" xmlns:xlink="http://www.w3.org/1999/xlink" width="576" height="512"><defs><style type="text/css"></style></defs><path d="M735.744 352.32H416.256a32 32 0 0 0 0 64h319.552a32 32 0 1 0 0-64z m0 160H416.256a32 32 0 0 0 0 64h319.552a32 32 0 1 0 0-64z m0 160H416.256a32 32 0 0 0 0 64h319.552a32 32 0 0 0 0-64z" p-id="3162"></path><path d="M1120 960H1088V384a34.432 34.432 0 0 0-32-32H896V256a64 64 0 0 0-64-64H608V128h32a34.432 34.432 0 0 0 32-32 32 32 0 0 0-32-32h-32V32a32 32 0 0 0-64 0V64H512a32 32 0 0 0-32 32 34.432 34.432 0 0 0 32 32h32v64H320a64 64 0 0 0-64 64v224H96A34.432 34.432 0 0 0 64 512v448H32a32 32 0 0 0 0 64h1088a32 32 0 0 0 0-64zM128 544h128V960H128z m512 416H512v-64h128z m64 0v-96a34.432 34.432 0 0 0-32-32h-192a34.432 34.432 0 0 0-32 32V960H320V256h512v704z m192 0V416h128V960z"  p-id="3163"></path></svg>
